<svg width="77" height="77" viewBox="0 0 77 77" fill="none" xmlns="http://www.w3.org/2000/svg">
<g clip-path="url(#clip0_3_2879)">
<path d="M49.7292 44.9167H47.1946L46.2963 44.0504C49.4404 40.3929 51.3333 35.6446 51.3333 30.4792C51.3333 18.9613 41.9971 9.625 30.4792 9.625C18.9613 9.625 9.625 18.9613 9.625 30.4792C9.625 41.9971 18.9613 51.3333 30.4792 51.3333C35.6446 51.3333 40.3929 49.4404 44.0504 46.2963L44.9167 47.1946V49.7292L60.9583 65.7388L65.7388 60.9583L49.7292 44.9167ZM30.4792 44.9167C22.4904 44.9167 16.0417 38.4679 16.0417 30.4792C16.0417 22.4904 22.4904 16.0417 30.4792 16.0417C38.4679 16.0417 44.9167 22.4904 44.9167 30.4792C44.9167 38.4679 38.4679 44.9167 30.4792 44.9167Z" fill="#A6A0A0"/>
</g>
<defs>
<clipPath id="clip0_3_2879">
<rect width="77" height="77" fill="white"/>
</clipPath>
</defs>
</svg>
